<svg xmlns="http://www.w3.org/2000/svg" version="1.1" xmlns:xlink="http://www.w3.org/1999/xlink" viewBox="0 0 24 24">
<defs>
<filter id="Filter_1" x="-22%" y="-28%" width="150%" height="150%" color-interpolation-filters="sRGB">
<feFlood flood-color="#000" flood-opacity="0.5" in="SourceGraphic" result="result1"/>

<feComposite in2="SourceGraphic" in="result1" operator="in" result="result2"/>

<feGaussianBlur in="result2" stdDeviation="0.6,0.6" result="result3"/>

<feOffset dx="0" dy="2" in="result3" result="result4"/>

<feComposite in2="result4" in="SourceGraphic" operator="over" result="result5"/>
</filter>

<g id="f">
<path fill="#FFCC00" d="
M 18 5.25
Q 18 4.3 17.35 3.65 16.7 3 15.75 3
L 12 3
Q 12 1.75 11.1 0.9 10.25 0 9 0 7.75 0 6.9 0.9 6 1.75 6 3
L 2.25 3
Q 1.3 3 0.65 3.65 0 4.3 0 5.25
L 0 21.75
Q 0 22.7 0.65 23.35 1.3 24 2.25 24
L 15.75 24
Q 16.7 24 17.35 23.35 18 22.7 18 21.75
L 18 5.25
M 13.2 6
Q 13.35 6 13.4 6.1 13.5 6.15 13.5 6.3
L 13.5 7.2
Q 13.5 7.35 13.4 7.4 13.35 7.5 13.2 7.5
L 4.8 7.5
Q 4.65 7.5 4.6 7.4 4.5 7.35 4.5 7.2
L 4.5 6.3
Q 4.5 6.15 4.6 6.1 4.65 6 4.8 6
L 13.2 6
M 10.2 10.9
Q 11.55 10.9 12.6 11.6 13.6 12.3 13.6 13.5 13.6 13.75 13.45 13.95 13.3 14.15 13 14.15
L 12.3 14.15
Q 11.75 14.15 11.45 13.5 11.05 12.55 10 12.55
L 8.85 12.55
Q 7.55 12.55 7.1 13.1 6.65 13.7 6.65 15.2
L 6.65 15.3
Q 6.65 16.8 7.1 17.4 7.55 17.95 8.85 17.95
L 10 17.95
Q 11.05 17.95 11.45 17 11.75 16.35 12.3 16.35
L 13 16.35
Q 13.3 16.35 13.45 16.55 13.6 16.75 13.6 17 13.6 18.2 12.6 18.9 11.55 19.6 10.2 19.6
L 8.8 19.6
Q 6.6 19.6 5.5 18.55 4.4 17.5 4.4 15.35 4.4 15.3 4.4 15.25 4.4 15.2 4.4 15.15 4.4 13 5.5 11.95 6.6 10.9 8.8 10.9
L 10.2 10.9
M 9 1.9
Q 9.45 1.9 9.8 2.2 10.15 2.55 10.15 3 10.15 3.45 9.8 3.8 9.45 4.15 9 4.15 8.55 4.15 8.2 3.8 7.9 3.45 7.9 3 7.9 2.55 8.2 2.2 8.55 1.9 9 1.9 Z"/>
</g>
</defs>

<g id="c">
<g filter="url(#Filter_1)" transform="matrix( 1, 0, 0, 1, 0,0) ">
<g transform="matrix( 0.9166717529296875, 0, 0, 0.9166717529296875, 3.75,0) ">
<g id="Camada_1">
<g transform="matrix( 1, 0, 0, 1, 0,0) ">
<use xlink:href="#f"/>
</g>
</g>
</g>
</g>
</g>
</svg>
