<svg xmlns="http://www.w3.org/2000/svg" viewBox="0 0 24 24"><path fill="#FFF" d="M12.6 9.6v2.1q0 .55-.2 1.05t-.6.85q-.35.4-.85.6-.5.2-1.05.2t-1.05-.2q-.5-.2-.85-.6-.4-.35-.6-.85-.2-.5-.2-1.05V7.15L4.75 8.6q-.55.3-.85.9-.3.55-.3 1.15v1.8l-3 1.7q-.45.25-.55.75-.15.45.1.9l3 5.2q.25.4.75.55.45.15.9-.1l3.85-2.25h5.15q1 0 1.7-.7t.7-1.7h.6q.5 0 .85-.35t.35-.85v-2.4h.3q.35 0 .65-.25.25-.3.25-.65v-1.8q0-.4-.25-.65-.3-.25-.65-.25h-5.7m11.35-.5q.15-.45-.1-.9l-3-5.2q-.25-.45-.75-.55-.5-.15-.9.1L15.3 4.8h-3.8q-.35 0-.65.1-.35.1-.65.25l-1.25.8q-.25.15-.4.45-.15.25-.15.55v4.75q0 .6.45 1.05.45.45 1.05.45.6 0 1.05-.45.45-.45.45-1.05V8.4h6.9q.85 0 1.5.6.6.65.6 1.5v1.05l3-1.7q.4-.25.55-.75Z"/></svg>